<?xml version="1.0" standalone="no"?>
<!DOCTYPE svg PUBLIC "-//W3C//DTD SVG 20010904//EN"
 "http://www.w3.org/TR/2001/REC-SVG-20010904/DTD/svg10.dtd">
<svg version="1.0" xmlns="http://www.w3.org/2000/svg"
 width="1280.000000pt" height="1280.000000pt" viewBox="0 0 1280.000000 1280.000000"
 preserveAspectRatio="xMidYMid meet">
<metadata>
Created by potrace 1.16, written by Peter Selinger 2001-2019
</metadata>
<g transform="translate(0.000000,1280.000000) scale(0.100000,-0.100000)"
fill="#000000" stroke="none">
<path d="M10327 10560 c-3 -14 -11 -50 -18 -80 -23 -109 -101 -220 -166 -236
-30 -8 -29 -20 2 -28 13 -3 41 -20 60 -38 59 -51 87 -110 120 -253 7 -27 9
-23 24 40 32 131 91 217 176 256 29 13 34 18 19 18 -23 1 -90 43 -112 70 -29
37 -56 100 -77 185 -17 69 -24 85 -28 66z"/>
<path d="M9591 10360 c-49 -356 -151 -576 -329 -709 -37 -28 -95 -61 -129 -73
-35 -13 -63 -25 -63 -28 0 -3 25 -13 56 -23 80 -25 149 -73 225 -155 112 -120
179 -274 228 -516 29 -146 32 -147 51 -36 14 77 41 182 69 263 78 225 229 391
411 453 l65 21 -43 8 c-123 20 -270 137 -349 276 -65 114 -92 205 -166 554
l-12 60 -14 -95z"/>
<path d="M9007 9240 c-3 -8 -10 -40 -15 -70 -22 -115 -87 -215 -165 -250 l-38
-17 26 -7 c40 -10 120 -91 143 -144 11 -26 26 -70 32 -97 19 -83 21 -83 41 -7
33 132 107 231 183 248 l31 7 -40 14 c-48 16 -100 64 -127 117 -11 22 -30 80
-43 130 -13 50 -26 84 -28 76z"/>
<path d="M4676 8307 c-125 -201 -539 -862 -706 -1127 -153 -244 -534 -851
-2135 -3405 -390 -621 -771 -1229 -846 -1350 l-139 -220 1587 -3 c872 -1 1589
0 1591 3 3 3 -100 216 -228 475 l-234 470 -528 0 c-290 0 -528 3 -528 7 0 3
22 40 48 82 27 42 136 213 242 381 106 168 271 427 365 575 177 279 273 430
485 765 68 107 201 317 295 465 94 149 221 349 282 445 61 96 212 333 335 527
122 194 228 360 234 369 8 14 85 -102 439 -667 235 -376 578 -922 760 -1214
183 -291 489 -780 680 -1085 191 -305 489 -781 662 -1056 l314 -502 382 -6
c210 -3 1104 -10 1987 -16 883 -5 1678 -12 1768 -15 89 -3 162 -4 162 -1 0 2
-222 359 -493 793 -272 433 -848 1355 -1282 2048 -1013 1620 -1035 1655 -1043
1655 -4 0 -36 -47 -72 -103 -35 -56 -150 -235 -254 -397 -104 -162 -189 -300
-189 -306 0 -6 118 -204 263 -440 145 -236 334 -544 420 -684 251 -409 857
-1396 926 -1507 l64 -103 -1093 0 -1092 0 -382 618 c-210 339 -504 815 -654
1057 -150 242 -478 773 -729 1180 -251 407 -662 1071 -912 1475 -250 404 -492
797 -539 872 -46 76 -86 137 -89 137 -3 0 -59 -86 -124 -192z"/>
<path d="M8033 8488 c-6 -7 -97 -150 -203 -318 -106 -168 -223 -352 -260 -410
-37 -58 -235 -370 -440 -695 -205 -324 -392 -620 -416 -657 l-43 -67 244 -368
c299 -453 274 -418 290 -401 7 7 80 121 162 253 138 221 473 757 967 1543 108
172 196 315 196 317 0 3 -480 808 -484 813 -2 1 -8 -3 -13 -10z"/>
<path d="M5527 4453 c-52 -82 -266 -415 -476 -741 l-381 -593 191 -357 c106
-196 217 -403 247 -460 30 -57 55 -102 57 -100 1 2 217 352 479 778 268 434
475 781 473 790 -6 25 -479 830 -487 830 -4 0 -50 -66 -103 -147z"/>
</g>
</svg>
